<?xml version="1.0" encoding="UTF-8" standalone="no"?>
<svg id="svg2" xmlns:rdf="http://www.w3.org/1999/02/22-rdf-syntax-ns#" xmlns="http://www.w3.org/2000/svg" viewBox="0 0 690 340" version="1.2" xmlns:cc="http://creativecommons.org/ns#" xmlns:xlink="http://www.w3.org/1999/xlink" xmlns:dc="http://purl.org/dc/elements/1.1/">
 <metadata id="metadata3421">
  <rdf:RDF>
   <cc:Work rdf:about="">
    <dc:format>image/svg+xml</dc:format>
    <dc:type rdf:resource="http://purl.org/dc/dcmitype/StillImage"/>
    <dc:title/>
   </cc:Work>
  </rdf:RDF>
 </metadata>
 <defs id="defs4">
  <linearGradient id="linearGradient4652">
   <stop id="stop4654" stop-color="#47b354" offset="0"/>
   <stop id="stop4656" stop-color="#eaf6eb" offset="1"/>
  </linearGradient>
  <linearGradient id="linearGradient3600-0-3">
   <stop id="stop3602-0-1" stop-color="#7dbaff" offset="0"/>
   <stop id="stop3604-6-0" stop-color="#f2f8ff" offset="1"/>
  </linearGradient>
  <linearGradient id="linearGradient4748" y2="56.78" xlink:href="#linearGradient4652" gradientUnits="userSpaceOnUse" x2="-265.1" y1="56.78" x1="-390.83"/>
  <linearGradient id="linearGradient4750" y2="56.78" xlink:href="#linearGradient3600-0-3" gradientUnits="userSpaceOnUse" x2="-265.28" y1="56.78" x1="-390.65"/>
  <linearGradient id="linearGradient4014" y2="329.66" gradientUnits="userSpaceOnUse" x2="-214.45" gradientTransform="matrix(0.75406723,0,0,0.75406723,764.05322,50.166346)" y1="329.66" x1="-902.5">
   <stop id="stop4638" stop-color="#fd9f6b" offset="0"/>
   <stop id="stop4640" stop-color="#f6eeea" offset="1"/>
  </linearGradient>
  <linearGradient id="linearGradient4178" y2="56.78" xlink:href="#linearGradient3600-0-3" gradientUnits="userSpaceOnUse" x2="-265.1" y1="56.78" x1="-390.83"/>
 </defs>
 <path id="path9162" style="block-progression:tb;color:#000000;direction:ltr;text-indent:0;text-align:start;enable-background:accumulate;text-transform:none;" fill="#008000" d="m344.07,91.202c-74.539,0-142.02,9.4648-191.16,24.908-24.568,7.7215-44.561,16.911-58.652,27.382-14.092,10.471-22.528,22.516-22.528,35.677,0,14.183,9.756,27.042,25.921,38.104l3.9117-5.7498c-15.166-10.38-22.872-21.39-22.872-32.35,0-10.173,6.6048-20.344,19.724-30.092s32.492-18.775,56.579-26.345c48.172-15.14,115.13-24.578,189.08-24.578,73.949,0,140.89,9.438,189.06,24.578,24.086,7.5699,43.483,16.597,56.602,26.345s19.724,19.919,19.724,30.092c0,10.945-7.685,21.937-22.811,32.307l3.9117,5.7262c16.114-11.048,25.85-23.875,25.85-38.033,0-13.161-8.4362-25.206-22.528-35.677s-34.084-19.661-58.652-27.382c-49.13-15.45-116.61-24.918-191.15-24.918z"/>
 <g id="g_bases">
  <path id="path4910" stroke-linejoin="round" style="stroke-dasharray:none;" d="m-266.1,56.78a61.864,61.864,0,1,1,-123.73,0,61.864,61.864,0,1,1,123.73,0z" transform="matrix(0.75406723,0,0,0.75406723,590.23437,183.23682)" stroke-dashoffset="0" stroke="#002f64" stroke-miterlimit="4" stroke-width="2.65228343" fill="url(#linearGradient4178)"/>
  <text id="text4098" style="writing-mode:lr-tb;text-anchor:start;text-align:start;" font-weight="normal" xml:space="preserve" font-size="11px" font-style="normal" font-stretch="normal" font-variant="normal" y="216.95715" x="302.61417" font-family="Sans" line-height="125%" fill="#002f64"><tspan id="tspan4100" x="302.61417" y="216.95715"><tspan id="tspan4102" style="writing-mode:lr-tb;text-anchor:start;text-align:start;" font-weight="normal" font-size="11px" font-style="normal" line-height="125%" font-stretch="normal" font-variant="normal" y="216.95715" x="302.61417" font-family="Sans" fill="#002f64">Base de Datos </tspan></tspan><tspan id="tspan4104" x="302.51108" y="230.15332"><tspan id="tspan4106" style="writing-mode:lr-tb;text-anchor:start;text-align:start;" font-weight="normal" font-size="11px" font-style="normal" line-height="125%" font-stretch="normal" font-variant="normal" y="230.15332" x="302.51108" font-family="Sans" fill="#002f64">Institucionales </tspan></tspan><tspan id="tspan4108" x="322.74863" y="243.34952"><tspan id="tspan4110" style="writing-mode:lr-tb;text-anchor:start;text-align:start;" font-weight="normal" font-size="11px" font-style="normal" line-height="125%" font-stretch="normal" font-variant="normal" y="243.34952" x="322.74863" font-family="Sans" fill="#002f64">de ETP</tspan></tspan></text>
  <path id="path3446" d="m-266.1,56.78a61.864,61.864,0,1,1,-123.73,0,61.864,61.864,0,1,1,123.73,0z" stroke-opacity="0" fill-opacity="0" transform="matrix(0.75406723,0,0,0.75406723,590.23437,183.23682)" stroke-miterlimit="4"/>
 </g>
 <g id="g_homologacion">
  <path id="path4912" stroke-linejoin="round" style="stroke-dasharray:none;" d="m-266.1,56.78a61.864,61.864,0,1,1,-123.73,0,61.864,61.864,0,1,1,123.73,0z" transform="matrix(0.92017293,0,0,0.92193044,490.09809,20.71322)" stroke-dashoffset="0" stroke="#002f64" stroke-miterlimit="4" stroke-width="2.17143178" fill="url(#linearGradient4750)"/>
  <text id="text4070" style="writing-mode:lr-tb;text-anchor:start;text-align:start;" font-weight="normal" xml:space="preserve" transform="scale(0.99904641,1.0009545)" font-style="normal" line-height="125%" font-stretch="normal" font-size="12px" font-variant="normal" y="68.575768" x="152.07979" font-family="Sans" fill="#002f64"><tspan id="tspan4072" y="68.575768" x="152.07979"><tspan id="tspan4074" style="writing-mode:lr-tb;text-anchor:start;text-align:start;" font-weight="normal" font-size="12px" font-style="normal" line-height="125%" font-stretch="normal" font-variant="normal" y="68.575768" x="152.07979" font-family="Sans" fill="#002f64">Procesos De </tspan></tspan><tspan id="tspan4076" y="83.657074" x="145.45813"><tspan id="tspan4078" style="writing-mode:lr-tb;text-anchor:start;text-align:start;" font-weight="normal" font-size="12px" font-style="normal" line-height="125%" font-stretch="normal" font-variant="normal" y="83.657074" x="145.45813" font-family="Sans" fill="#002f64">Homologación</tspan></tspan></text>
  <path id="path3446-6" d="m-266.1,56.78a61.864,61.864,0,1,1,-123.73,0,61.864,61.864,0,1,1,123.73,0z" stroke-opacity="0" fill-opacity="0" transform="matrix(0.92017293,0,0,0.92193044,490.09809,20.71322)" stroke-miterlimit="4"/>
 </g>
 <g id="g_registro">
  <path id="path4914" stroke-linejoin="round" style="stroke-dasharray:none;" d="m-266.1,56.78a61.864,61.864,0,1,1,-123.73,0,61.864,61.864,0,1,1,123.73,0z" transform="matrix(0.92017293,0,0,0.92193044,645.22714,20.71321)" stroke-dashoffset="0" stroke="#002f64" stroke-miterlimit="4" stroke-width="2.17143178" fill="url(#linearGradient4750)"/>
  <text id="text4080" style="text-anchor:start;text-align:start;" font-weight="normal" xml:space="preserve" transform="scale(0.99904641,1.0009545)" font-style="normal" font-stretch="normal" line-height="125%" font-size="12px" font-variant="normal" y="54.842049" x="320.3649" font-family="Sans" fill="#002f64"><tspan id="tspan4082" style="writing-mode:lr-tb;text-anchor:start;text-align:start;" line-height="125%" y="54.842049" x="320.3649"><tspan id="tspan4084" style="writing-mode:lr-tb;text-anchor:start;text-align:start;" font-weight="normal" font-size="12px" font-style="normal" line-height="125%" font-stretch="normal" font-variant="normal" y="54.842049" x="320.3649" font-family="Sans" fill="#002f64">Registro </tspan></tspan><tspan id="tspan4086" style="writing-mode:lr-tb;text-anchor:start;text-align:start;" line-height="125%" y="69.923386" x="313.08344"><tspan id="tspan4088" style="writing-mode:lr-tb;text-anchor:start;text-align:start;" font-weight="normal" font-size="12px" font-style="normal" line-height="125%" font-stretch="normal" font-variant="normal" y="69.923386" x="313.08344" font-family="Sans" fill="#002f64">Federal de </tspan></tspan><tspan id="tspan4090" style="writing-mode:lr-tb;text-anchor:start;text-align:start;" line-height="125%" y="85.004692" x="305.02432"><tspan id="tspan4092" style="writing-mode:lr-tb;text-anchor:start;text-align:start;" font-weight="normal" font-size="12px" font-style="normal" line-height="125%" font-stretch="normal" font-variant="normal" y="85.004692" x="305.02432" font-family="Sans" fill="#002f64">Instituciones </tspan></tspan><tspan id="tspan4094" style="writing-mode:lr-tb;text-anchor:start;text-align:start;" line-height="125%" y="100.08609" x="325.93793"><tspan id="tspan4096" style="writing-mode:lr-tb;text-anchor:start;text-align:start;" font-weight="normal" font-size="12px" font-style="normal" line-height="125%" font-stretch="normal" font-variant="normal" y="100.08609" x="325.93793" font-family="Sans" fill="#002f64">de ETP</tspan></tspan></text>
  <path id="path3446-6-9" d="m-266.1,56.78a61.864,61.864,0,1,1,-123.73,0,61.864,61.864,0,1,1,123.73,0z" stroke-opacity="0" fill-opacity="0" transform="matrix(0.92017293,0,0,0.92193044,645.22714,20.71321)" stroke-miterlimit="4"/>
 </g>
 <g id="g_catalogo">
  <path id="path4916" stroke-linejoin="round" style="stroke-dasharray:none;" d="m-266.1,56.78a61.864,61.864,0,1,1,-123.73,0,61.864,61.864,0,1,1,123.73,0z" transform="matrix(0.92017293,0,0,0.92193044,800.35614,20.71322)" stroke-dashoffset="0" stroke="#002f64" stroke-miterlimit="4" stroke-width="2.17143178" fill="url(#linearGradient4750)"/>
  <text id="text4112" style="writing-mode:lr-tb;text-anchor:start;text-align:start;" font-weight="normal" xml:space="preserve" transform="scale(0.99904641,1.0009545)" font-style="normal" line-height="125%" font-stretch="normal" font-size="12px" font-variant="normal" y="70.163643" x="471.99084" font-family="Sans" fill="#002f64"><tspan id="tspan4114" y="70.163643" x="471.99084"><tspan id="tspan4116" style="writing-mode:lr-tb;text-anchor:start;text-align:start;" font-weight="normal" font-size="12px" font-style="normal" line-height="125%" font-stretch="normal" font-variant="normal" y="70.163643" x="471.99084" font-family="Sans" fill="#002f64">Catálogo </tspan></tspan><tspan id="tspan4118" y="85.244987" x="472.76846"><tspan id="tspan4120" style="writing-mode:lr-tb;text-anchor:start;text-align:start;" font-weight="normal" font-size="12px" font-style="normal" line-height="125%" font-stretch="normal" font-variant="normal" y="85.244987" x="472.76846" font-family="Sans" fill="#002f64">Nacional</tspan></tspan></text>
  <path id="path3446-6-2" d="m-266.1,56.78a61.864,61.864,0,1,1,-123.73,0,61.864,61.864,0,1,1,123.73,0z" stroke-opacity="0" fill-opacity="0" transform="matrix(0.92017293,0,0,0.92193044,800.35614,20.71322)" stroke-miterlimit="4"/>
 </g>
 <g id="g_fortalecimiento">
  <path id="path4918" stroke-linejoin="round" style="stroke-dasharray:none;" d="m-266.1,56.78a61.864,61.864,0,1,1,-123.73,0,61.864,61.864,0,1,1,123.73,0z" transform="matrix(0.75406723,0,0,0.75406723,319.2859,140.14142)" stroke-dashoffset="0" stroke="#17391b" stroke-miterlimit="4" stroke-width="2.65228343" fill="url(#linearGradient4748)"/>
  <text id="text4052" style="text-anchor:start;text-align:start;" font-weight="normal" xml:space="preserve" font-size="15.0813446px" font-style="normal" y="168.52229" x="36.290298" font-family="Bitstream Vera Sans" fill="#000d00"><tspan id="tspan4054" y="168.52229" x="36.290298"><tspan id="tspan4056" style="text-anchor:start;text-align:start;" font-size="9.04880714px" y="168.52229" x="36.290298" fill="#000d00">Fortalecimiento </tspan></tspan><tspan id="tspan4058" y="179.8333" x="37.46558"><tspan id="tspan4060" style="text-anchor:start;text-align:start;" font-size="9.04880714px" y="179.8333" x="37.46558" fill="#000d00">de la Gestión a </tspan></tspan><tspan id="tspan4062" y="191.14433" x="35.592197"><tspan id="tspan4064" style="text-anchor:start;text-align:start;" font-size="9.04880714px" y="191.14433" x="35.592197" fill="#000d00">nivel Nacional y </tspan></tspan><tspan id="tspan4066" y="202.45534" x="41.848598"><tspan id="tspan4068" style="text-anchor:start;text-align:start;" font-size="9.04880714px" y="202.45534" x="41.848598" fill="#000d00">Jurisdiccional</tspan></tspan></text>
  <path id="path3446-60-0" d="m-266.1,56.78a61.864,61.864,0,1,1,-123.73,0,61.864,61.864,0,1,1,123.73,0z" stroke-opacity="0" fill-opacity="0" transform="matrix(0.75406723,0,0,0.75406723,319.2859,140.14142)" stroke-miterlimit="4"/>
 </g>
 <g id="g_estudios">
  <path id="path4920" stroke-linejoin="round" style="stroke-dasharray:none;" d="m-266.1,56.78a61.864,61.864,0,1,1,-123.73,0,61.864,61.864,0,1,1,123.73,0z" transform="matrix(0.75406723,0,0,0.75406723,862.21425,140.14142)" stroke-dashoffset="0" stroke="#17391b" stroke-miterlimit="4" stroke-width="2.65228343" fill="url(#linearGradient4748)"/>
  <text id="text4026" style="text-anchor:middle;text-align:center;" font-weight="normal" xml:space="preserve" font-size="15.0813446px" font-style="normal" y="179.79797" x="591.3382" font-family="Bitstream Vera Sans" fill="#000d00"><tspan id="tspan4028" style="text-anchor:start;text-align:start;" y="179.79797" x="591.3382"><tspan id="tspan4030" style="text-anchor:start;text-align:start;" font-size="9.04880714px" y="179.79797" x="591.3382" fill="#000d00">Estudios e </tspan></tspan><tspan id="tspan4032" style="text-anchor:start;text-align:start;" y="191.10898" x="579.45282"><tspan id="tspan4034" style="text-anchor:start;text-align:start;" font-size="9.04880714px" y="191.10898" x="579.45282" fill="#000d00">Investigaciones</tspan></tspan></text>
  <path id="path3446-60-0-7" d="m-266.1,56.78a61.864,61.864,0,1,1,-123.73,0,61.864,61.864,0,1,1,123.73,0z" stroke-opacity="0" fill-opacity="0" transform="matrix(0.75406723,0,0,0.75406723,862.21425,140.14142)" stroke-miterlimit="4"/>
 </g>
 <g id="g_fondo">
  <rect id="rect4922" stroke-linejoin="round" style="stroke-dasharray:none;" stroke-dashoffset="0" rx="20" ry="20" height="39.62" width="515.07" stroke="#642300" stroke-miterlimit="4" y="278.94" x="85.393" stroke-width="2" fill="url(#linearGradient4014)"/>
  <text id="text4660" line-height="125%" font-weight="normal" transform="scale(0.91597463,1.0917333)" font-size="51.83086777px" font-style="normal" y="279.61493" x="265.32889" font-family="Bitstream Vera Sans" xml:space="preserve" fill="#642300"><tspan id="tspan4662" style="writing-mode:lr-tb;text-anchor:start;text-align:start;" font-weight="normal" font-size="16px" font-style="normal" line-height="125%" font-stretch="normal" font-variant="normal" y="279.61493" x="265.32889" font-family="Sans">Fondo Nacional Para la ETP</tspan></text>
  <rect id="rect4658" stroke-opacity="0" fill-opacity="0" rx="20" ry="20" height="39.62" width="515.07" stroke-miterlimit="4" y="278.94" x="85.393"/>
 </g>
 <g id="g10044" fill="#000080" transform="matrix(0.85184325,0,0,-0.85184325,48.670238,151.90223)">
  <path id="path4772" style="block-progression:tb;color:#000000;direction:ltr;text-indent:0;text-align:start;enable-background:accumulate;text-transform:none;" d="m347.03-9.9375c-62.01,0-136.66,30.875-136.66,30.875l3.6875,8.9688s74.226-30.156,132.97-30.156c58.743,0,128.62,30.125,128.62,30.125l3.875-8.9062s-70.49-30.906-132.5-30.906z"/>
  <path id="path10050" style="marker-start:none;" fill-rule="evenodd" d="m201.87,29.67,11.847-15.34,7.3589,17.95-19.206-2.6096z"/>
  <path id="path10052" style="marker-start:none;" fill-rule="evenodd" d="m487.87,29.885-19.257,2.2081,7.732-17.793,11.525,15.584z"/>
 </g>
 <g id="g10034" fill="#000080" transform="matrix(0.75406723,0,0,0.5759026,80.435237,158.28322)">
  <path id="path5786" style="block-progression:tb;color:#000000;direction:ltr;text-indent:0;text-align:start;enable-background:accumulate;text-transform:none;" d="m342.59-33.062,0,58.5,9.7188,0,0-58.5-9.7188,0z"/>
  <path id="path10040" style="marker-start:none;" fill-rule="evenodd" d="m347.46-44.245,9.7,16.781-19.4,0,9.7-16.781z"/>
  <path id="path10042" style="marker-start:none;" fill-rule="evenodd" d="m347.46,36.618-9.7-16.781,19.4,0-9.7,16.781z"/>
 </g>
 <g id="g10054" fill="#000080" transform="matrix(0.75406723,0,0,0.75406723,80.43517,10.233845)">
  <path id="path5786-1" style="block-progression:tb;color:#000000;direction:ltr;text-indent:0;text-align:start;enable-background:accumulate;text-transform:none;" d="m232,82.625,0,9.6875,25.5,0,0-9.6875-25.5,0z"/>
  <path id="path10060" style="marker-start:none;" fill-rule="evenodd" d="m220.81,87.475,16.781-9.7,0,19.4-16.781-9.7z"/>
  <path id="path10062" style="marker-start:none;" fill-rule="evenodd" d="m268.7,87.475-16.781,9.7,0-19.4,16.781,9.7z"/>
 </g>
 <g id="g10064" fill="#000080" transform="matrix(0.75406723,0,0,0.75406723,80.43517,10.233845)">
  <path id="path5786-1-6" style="block-progression:tb;color:#000000;direction:ltr;text-indent:0;text-align:start;enable-background:accumulate;text-transform:none;" d="m437.44,82.625,0,9.6875,25.5,0,0-9.6875-25.5,0z"/>
  <path id="path10070" style="marker-start:none;" fill-rule="evenodd" d="m426.24,87.475,16.781-9.7,0,19.4-16.781-9.7z"/>
  <path id="path10072" style="marker-start:none;" fill-rule="evenodd" d="m474.13,87.475-16.781,9.7,0-19.4,16.781,9.7z"/>
 </g>
 <g id="g10108" fill="#008000" transform="matrix(0.75406723,0,0,0.75406723,80.43517,10.233845)">
  <path id="path9152" style="block-progression:tb;color:#000000;direction:ltr;text-indent:0;text-align:start;enable-background:accumulate;text-transform:none;" d="m668.66,266.88c-54.521,37.38-178.3,64.594-321.69,64.594-143.29,0-267.02-27.186-321.59-64.531l-5.1875,7.625c58.132,39.779,182.35,66.125,326.78,66.125,144.53,0,268.79-26.395,326.88-66.219l-5.1875-7.5938z"/>
  <path id="path10114" style="marker-end:none;marker-start:none;" fill-rule="evenodd" d="m663.8,275.78c-2.8762-4.1952-1.8058-9.9343,2.3894-12.81,4.1952-2.8762,9.9343-1.8058,12.81,2.3894,2.8762,4.1952,1.8058,9.9343-2.3894,12.81-4.1952,2.8762-9.9343,1.8058-12.81-2.3894z"/>
  <path id="path10116" style="marker-end:none;marker-start:none;" fill-rule="evenodd" d="m15.328,265.65c2.8725-4.1977,8.6106-5.2733,12.808-2.4008,4.1977,2.8725,5.2733,8.6106,2.4008,12.808-2.8725,4.1977-8.6106,5.2733-12.808,2.4008-4.1977-2.8725-5.2733-8.6106-2.4008-12.808z"/>
 </g>
</svg>